<svg xmlns="http://www.w3.org/2000/svg" viewBox="0 0 368.98 553.48"><defs><style>.cls-1{fill:#e2001a;}.cls-2{fill:#820013;}</style></defs><g id="Calque_2" data-name="Calque 2"><g id="logo_sidaction" data-name="logo sidaction"><path id="path3135" class="cls-1" d="M190.17,299.86a276.55,276.55,0,0,0,19.69-24.54c6.22-8.69,10.4-21.86,10.1-30.1-.8-22.4-15.76-27.41-30.09-28.47-11.89-.89-34,2-36.39,32.37-1.36,16.93,7.86,34.78,21.69,50.46a331.54,331.54,0,0,1-34.46,29.27,37.79,37.79,0,0,0,8.6,8,300.72,300.72,0,0,0,33.54-29.24A166.52,166.52,0,0,0,220.55,335c3.12-1.17,6.89-4.86,7.72-8.18-16.61-9.77-29-18.69-38.1-27m-25.74-49.31c-.42-13.51,9.88-25.2,23.6-24.12,12.31,1,21.23,5.82,21,20.17-.13,8.44-5.17,20-11.63,28.11-4.24,5.34-9.08,11.14-15,17.48-14.37-15.65-17.56-29-18-41.64"/><path class="cls-2" d="M369,0V553.48H307c-27.73-64-27.57-112.53-22.15-145.28,10.26-61.94,40.64-75,41-131.46.34-55.76-29.09-69.1-39.32-131.46C281,111.83,280.85,63.25,307,0Z"/><path class="cls-2" d="M62,553.48H0V0H62c26.1,63.25,26,111.83,20.49,145.28C72.29,207.64,42.86,221,43.2,276.74c.34,56.5,30.72,69.52,41,131.46C89.6,441,89.76,489.52,62,553.48Z"/></g></g></svg>